<svg id="visual" viewBox="0 0 900 200" width="900" height="200" xmlns="http://www.w3.org/2000/svg" xmlns:xlink="http://www.w3.org/1999/xlink" version="1.1"><rect x="0" y="0" width="900" height="200" fill="#333232"></rect><path d="M0 111L16.7 105.8C33.3 100.7 66.7 90.3 100 92.7C133.3 95 166.7 110 200 111.8C233.3 113.7 266.7 102.3 300 100C333.3 97.7 366.7 104.3 400 105C433.3 105.7 466.7 100.3 500 97.5C533.3 94.7 566.7 94.3 600 96.2C633.3 98 666.7 102 700 104.7C733.3 107.3 766.7 108.7 800 105.2C833.3 101.7 866.7 93.3 883.3 89.2L900 85L900 0L883.3 0C866.7 0 833.3 0 800 0C766.7 0 733.3 0 700 0C666.7 0 633.3 0 600 0C566.7 0 533.3 0 500 0C466.7 0 433.3 0 400 0C366.7 0 333.3 0 300 0C266.7 0 233.3 0 200 0C166.7 0 133.3 0 100 0C66.7 0 33.3 0 16.7 0L0 0Z" fill="#1f3e05"></path><path d="M0 94L16.7 90.7C33.3 87.3 66.7 80.7 100 80.2C133.3 79.7 166.7 85.3 200 90.2C233.3 95 266.7 99 300 95C333.3 91 366.7 79 400 75.2C433.3 71.3 466.7 75.7 500 81.5C533.3 87.3 566.7 94.7 600 93.3C633.3 92 666.7 82 700 82.2C733.3 82.3 766.7 92.7 800 94.8C833.3 97 866.7 91 883.3 88L900 85L900 0L883.3 0C866.7 0 833.3 0 800 0C766.7 0 733.3 0 700 0C666.7 0 633.3 0 600 0C566.7 0 533.3 0 500 0C466.7 0 433.3 0 400 0C366.7 0 333.3 0 300 0C266.7 0 233.3 0 200 0C166.7 0 133.3 0 100 0C66.7 0 33.3 0 16.7 0L0 0Z" fill="#38651a"></path><path d="M0 77L16.7 75.2C33.3 73.3 66.7 69.7 100 66.3C133.3 63 166.7 60 200 61.7C233.3 63.3 266.7 69.7 300 72.8C333.3 76 366.7 76 400 77.2C433.3 78.3 466.7 80.7 500 76C533.3 71.3 566.7 59.7 600 54.5C633.3 49.3 666.7 50.7 700 55.7C733.3 60.7 766.7 69.3 800 68.7C833.3 68 866.7 58 883.3 53L900 48L900 0L883.3 0C866.7 0 833.3 0 800 0C766.7 0 733.3 0 700 0C666.7 0 633.3 0 600 0C566.7 0 533.3 0 500 0C466.7 0 433.3 0 400 0C366.7 0 333.3 0 300 0C266.7 0 233.3 0 200 0C166.7 0 133.3 0 100 0C66.7 0 33.3 0 16.7 0L0 0Z" fill="#529030"></path><path d="M0 52L16.7 50C33.3 48 66.7 44 100 41.2C133.3 38.3 166.7 36.7 200 38.8C233.3 41 266.7 47 300 46.5C333.3 46 366.7 39 400 35.2C433.3 31.3 466.7 30.7 500 32.7C533.3 34.7 566.7 39.3 600 43.5C633.3 47.7 666.7 51.3 700 50.8C733.3 50.3 766.7 45.7 800 44C833.3 42.3 866.7 43.7 883.3 44.3L900 45L900 0L883.3 0C866.7 0 833.3 0 800 0C766.7 0 733.3 0 700 0C666.7 0 633.3 0 600 0C566.7 0 533.3 0 500 0C466.7 0 433.3 0 400 0C366.7 0 333.3 0 300 0C266.7 0 233.3 0 200 0C166.7 0 133.3 0 100 0C66.7 0 33.3 0 16.7 0L0 0Z" fill="#6cbd49"></path><path d="M0 32L16.7 29.5C33.3 27 66.7 22 100 19.2C133.3 16.3 166.7 15.7 200 15.8C233.3 16 266.7 17 300 19.8C333.3 22.7 366.7 27.3 400 27.5C433.3 27.7 466.7 23.3 500 21.7C533.3 20 566.7 21 600 23.5C633.3 26 666.7 30 700 32.3C733.3 34.7 766.7 35.3 800 33.7C833.3 32 866.7 28 883.3 26L900 24L900 0L883.3 0C866.7 0 833.3 0 800 0C766.7 0 733.3 0 700 0C666.7 0 633.3 0 600 0C566.7 0 533.3 0 500 0C466.7 0 433.3 0 400 0C366.7 0 333.3 0 300 0C266.7 0 233.3 0 200 0C166.7 0 133.3 0 100 0C66.7 0 33.3 0 16.7 0L0 0Z" fill="#85ec64"></path></svg>