<svg id="visual" viewBox="0 0 900 300" width="900" height="300" xmlns="http://www.w3.org/2000/svg" xmlns:xlink="http://www.w3.org/1999/xlink" version="1.1"><rect x="0" y="0" width="900" height="300" fill="#1a1c1e"></rect><path d="M0 166L16.7 158.5C33.3 151 66.7 136 100 139.7C133.3 143.3 166.7 165.7 200 168.3C233.3 171 266.7 154 300 150.5C333.3 147 366.7 157 400 158C433.3 159 466.7 151 500 146.7C533.3 142.3 566.7 141.7 600 144.3C633.3 147 666.7 153 700 157C733.3 161 766.7 163 800 157.8C833.3 152.7 866.7 140.3 883.3 134.2L900 128L900 0L883.3 0C866.7 0 833.3 0 800 0C766.7 0 733.3 0 700 0C666.7 0 633.3 0 600 0C566.7 0 533.3 0 500 0C466.7 0 433.3 0 400 0C366.7 0 333.3 0 300 0C266.7 0 233.3 0 200 0C166.7 0 133.3 0 100 0C66.7 0 33.3 0 16.7 0L0 0Z" fill="#58d550"></path><path d="M0 141L16.7 136C33.3 131 66.7 121 100 120.5C133.3 120 166.7 129 200 136.3C233.3 143.7 266.7 149.3 300 143.3C333.3 137.3 366.7 119.7 400 114C433.3 108.3 466.7 114.7 500 123.3C533.3 132 566.7 143 600 141C633.3 139 666.7 124 700 124.2C733.3 124.3 766.7 139.7 800 142.8C833.3 146 866.7 137 883.3 132.5L900 128L900 0L883.3 0C866.7 0 833.3 0 800 0C766.7 0 733.3 0 700 0C666.7 0 633.3 0 600 0C566.7 0 533.3 0 500 0C466.7 0 433.3 0 400 0C366.7 0 333.3 0 300 0C266.7 0 233.3 0 200 0C166.7 0 133.3 0 100 0C66.7 0 33.3 0 16.7 0L0 0Z" fill="#4f9c37"></path><path d="M0 116L16.7 113.3C33.3 110.7 66.7 105.3 100 100.3C133.3 95.3 166.7 90.7 200 93C233.3 95.3 266.7 104.7 300 109.3C333.3 114 366.7 114 400 115.7C433.3 117.3 466.7 120.7 500 113.8C533.3 107 566.7 90 600 82.3C633.3 74.7 666.7 76.3 700 83.7C733.3 91 766.7 104 800 103.2C833.3 102.3 866.7 87.7 883.3 80.3L900 73L900 0L883.3 0C866.7 0 833.3 0 800 0C766.7 0 733.3 0 700 0C666.7 0 633.3 0 600 0C566.7 0 533.3 0 500 0C466.7 0 433.3 0 400 0C366.7 0 333.3 0 300 0C266.7 0 233.3 0 200 0C166.7 0 133.3 0 100 0C66.7 0 33.3 0 16.7 0L0 0Z" fill="#3d6724"></path><path d="M0 79L16.7 76C33.3 73 66.7 67 100 62.7C133.3 58.3 166.7 55.7 200 58.7C233.3 61.7 266.7 70.3 300 69.7C333.3 69 366.7 59 400 53.5C433.3 48 466.7 47 500 49.8C533.3 52.7 566.7 59.3 600 65.5C633.3 71.7 666.7 77.3 700 76.7C733.3 76 766.7 69 800 66.5C833.3 64 866.7 66 883.3 67L900 68L900 0L883.3 0C866.7 0 833.3 0 800 0C766.7 0 733.3 0 700 0C666.7 0 633.3 0 600 0C566.7 0 533.3 0 500 0C466.7 0 433.3 0 400 0C366.7 0 333.3 0 300 0C266.7 0 233.3 0 200 0C166.7 0 133.3 0 100 0C66.7 0 33.3 0 16.7 0L0 0Z" fill="#263715"></path><path d="M0 49L16.7 45.2C33.3 41.3 66.7 33.7 100 29.3C133.3 25 166.7 24 200 24.2C233.3 24.3 266.7 25.7 300 29.8C333.3 34 366.7 41 400 41.3C433.3 41.7 466.7 35.3 500 32.8C533.3 30.3 566.7 31.7 600 35.5C633.3 39.3 666.7 45.7 700 49.2C733.3 52.7 766.7 53.3 800 50.7C833.3 48 866.7 42 883.3 39L900 36L900 0L883.3 0C866.7 0 833.3 0 800 0C766.7 0 733.3 0 700 0C666.7 0 633.3 0 600 0C566.7 0 533.3 0 500 0C466.7 0 433.3 0 400 0C366.7 0 333.3 0 300 0C266.7 0 233.3 0 200 0C166.7 0 133.3 0 100 0C66.7 0 33.3 0 16.7 0L0 0Z" fill="#060900"></path></svg>