<svg id="visual" viewBox="0 0 900 600" width="900" height="600" xmlns="http://www.w3.org/2000/svg" xmlns:xlink="http://www.w3.org/1999/xlink" version="1.1"><rect x="0" y="0" width="900" height="600" fill="#5f5b5b"></rect><path d="M439 600L426 585.7C413 571.3 387 542.7 384.7 514.2C382.3 485.7 403.7 457.3 427.8 428.8C452 400.3 479 371.7 498.2 343C517.3 314.3 528.7 285.7 513.2 257C497.7 228.3 455.3 199.7 431 171.2C406.7 142.7 400.3 114.3 418.3 85.8C436.3 57.3 478.7 28.7 499.8 14.3L521 0L900 0L900 14.3C900 28.7 900 57.3 900 85.8C900 114.3 900 142.7 900 171.2C900 199.7 900 228.3 900 257C900 285.7 900 314.3 900 343C900 371.7 900 400.3 900 428.8C900 457.3 900 485.7 900 514.2C900 542.7 900 571.3 900 585.7L900 600Z" fill="#262728" stroke-linecap="round" stroke-linejoin="miter"></path></svg>